<?xml version="1.0" standalone="no"?>
<!DOCTYPE svg PUBLIC "-//W3C//DTD SVG 20010904//EN"
 "http://www.w3.org/TR/2001/REC-SVG-20010904/DTD/svg10.dtd">
<svg version="1.0" xmlns="http://www.w3.org/2000/svg"
 width="512.000000pt" height="512.000000pt" viewBox="0 0 512.000000 512.000000"
 preserveAspectRatio="xMidYMid meet">

<g transform="translate(0.000000,512.000000) scale(0.100000,-0.100000)"
fill="#000000" stroke="none">
<path d="M895 5109 c-466 -60 -827 -427 -885 -899 -14 -116 -14 -3184 0 -3300
59 -480 420 -841 900 -900 116 -14 3184 -14 3300 0 124 15 222 45 335 99 315
154 521 446 565 801 14 116 14 3184 0 3300 -15 124 -45 222 -99 335 -154 315
-446 521 -801 565 -105 13 -3213 12 -3315 -1z m2145 -1058 c50 -26 80 -74 80
-129 0 -26 -56 -249 -135 -539 -74 -272 -135 -501 -135 -509 0 -12 50 -14 331
-14 322 0 333 -1 367 -22 37 -22 71 -85 72 -129 0 -14 -10 -44 -22 -67 -27
-47 -1508 -1556 -1549 -1578 -42 -21 -101 -18 -139 8 -55 38 -75 73 -74 131 0
46 22 97 202 469 111 230 202 420 202 422 0 3 -141 6 -312 8 -358 3 -363 5
-405 88 -28 53 -29 85 -5 130 10 19 243 319 518 665 275 347 573 722 662 835
103 130 176 213 200 227 45 28 96 29 142 4z"/>
</g>
</svg>
